<svg width="32" height="32" viewBox="0 0 32 32" fill="none" xmlns="http://www.w3.org/2000/svg">
<path d="M25.2883 10.9547L25.3943 10.8486L25.2883 10.7426L24.0773 9.53158L23.9712 9.42552L23.8651 9.53158L15.8438 17.5529L12.8417 14.1279L12.7428 14.0151L12.63 14.114L11.3422 15.2428L11.2294 15.3417L11.3283 15.4545L15.0388 19.6876C15.0388 19.6876 15.0388 19.6876 15.0388 19.6876C15.4175 20.1199 16.1006 20.1423 16.507 19.7359L25.2883 10.9547ZM22.008 8.90967L22.1032 8.79376L21.9873 8.69855C20.3034 7.31538 18.177 6.55369 15.9993 6.55369C10.7904 6.55369 6.55271 10.7913 6.55271 16.0003C6.55271 21.2093 10.7904 25.447 15.9993 25.447C21.2083 25.447 25.446 21.2093 25.4459 16.0003C25.4459 15.261 25.3597 14.524 25.1895 13.8098L25.1547 13.6639L25.0088 13.6986L23.3429 14.0956L23.197 14.1304L23.2318 14.2763C23.3656 14.8377 23.4335 15.4177 23.4335 16.0003C23.4335 20.0994 20.0984 23.4344 15.9993 23.4344C11.9003 23.4344 8.56519 20.0994 8.56519 16.0003C8.56519 11.9013 11.9003 8.56622 15.9993 8.56622C17.712 8.56622 19.3851 9.16555 20.7098 10.2537L20.8257 10.3489L20.921 10.233L22.008 8.90967ZM2.81602 16.0003C2.81602 8.71935 8.71837 2.81699 15.9993 2.81699C23.2803 2.81699 29.1827 8.71935 29.1827 16.0003C29.1827 23.2813 23.2803 29.1837 15.9993 29.1837C8.71837 29.1837 2.81602 23.2813 2.81602 16.0003Z" fill="white" stroke="#0D0E0F" stroke-width="0.3"/>
</svg>
