<svg width="24" height="24" viewBox="0 0 24 24" fill="none" xmlns="http://www.w3.org/2000/svg">
<path d="M5.21653 8.9105L6.29462 13.6148H11.7642H17.2342L18.3116 8.91137C18.3582 8.38605 18.6997 7.94593 19.1692 7.7568C18.4796 6.69984 17.2882 6 15.9321 6C15.9321 6 12.7956 6.25689 11.75 6.25689C10.7118 6.25689 7.5967 6 7.5967 6C6.24037 6 5.04941 6.70006 4.35938 7.75702C4.82848 7.94614 5.16969 8.38562 5.21653 8.9105Z" fill="#0D0E0F"/>
<path d="M21.5 9.85846C21.5 9.15949 20.8531 8.59277 20.0554 8.59277C19.3011 8.59277 18.6825 9.09914 18.617 9.74538L17.487 14.0669H6.01343L4.88283 9.74451C4.81703 9.09914 4.19845 8.59277 3.44457 8.59277C2.6469 8.59277 2 9.15949 2 9.85846C2 9.92906 2.00828 9.99791 2.02092 10.0652L3.93895 17.4827L4.00214 17.4696V17.4827H19.5983V17.34L21.5 10.0696C21.5 10.0696 21.5 9.92906 21.5 9.85846Z" fill="#0D0E0F"/>
</svg>
