<svg width="25" height="24" viewBox="0 0 25 24" fill="none" xmlns="http://www.w3.org/2000/svg">
<path d="M20.2178 9.44338C20.2178 9.06728 20.1717 9.00098 20.074 9.00098C19.9762 9.00098 19.9297 9.06728 19.9297 9.44338C19.9297 9.81973 19.976 9.88603 20.074 9.88603C20.1715 9.88603 20.2178 9.81973 20.2178 9.44338Z" fill="#0D0E0F"/>
<path d="M19.888 10.5874C19.888 10.2113 19.8414 10.1445 19.7437 10.1445C19.6464 10.1445 19.5996 10.2108 19.5996 10.5874C19.5996 10.964 19.6457 11.0306 19.7437 11.0306C19.8414 11.0306 19.888 10.964 19.888 10.5874Z" fill="#0D0E0F"/>
<path d="M19.5886 9.44338C19.5886 9.06728 19.5426 9.00098 19.4448 9.00098C19.3471 9.00098 19.3008 9.06728 19.3008 9.44338C19.3008 9.81973 19.3468 9.88603 19.4448 9.88603C19.5423 9.88603 19.5886 9.81973 19.5886 9.44338Z" fill="#0D0E0F"/>
<path d="M21.7102 13.0736V6H19.3868V7.74549C19.1559 7.77816 18.7311 7.87249 18.7311 8.12184C18.7311 8.39948 19.2724 8.52623 19.7755 8.52623C20.2784 8.52623 20.82 8.39996 20.82 8.12184C20.82 7.85421 20.3491 7.76475 20.0995 7.73623V6.80779H20.9977V12.1189C20.8034 11.9609 20.5536 11.8619 20.2774 11.8619C19.9386 11.8619 19.6273 12.0048 19.418 12.251C19.2086 12.005 18.8971 11.8619 18.5587 11.8619C18.2363 11.8619 17.5092 11.9936 17.2998 12.2195C17.0904 11.9936 16.7872 11.8619 16.4647 11.8619C16.1264 11.8619 15.3912 12.0048 15.1816 12.251C14.8966 11.9161 13.5619 11.772 13.1092 11.9219C12.6566 11.7718 11.3218 11.9163 11.0369 12.251C10.8275 12.0053 10.5162 11.8619 10.1776 11.8619C9.85516 11.8619 9.55218 11.9933 9.34279 12.2193C9.13341 11.9933 8.83019 11.8619 8.50771 11.8619C8.16914 11.8619 7.85763 12.005 7.64824 12.251C7.43886 12.0053 7.12759 11.8619 6.78878 11.8619C6.28593 11.8619 5.86473 12.1808 5.72944 12.6132C5.22781 12.472 4.53044 12.2812 3.5569 12.0214C3.17275 11.9226 2.77593 12.153 2.67648 12.5167C2.62382 12.7095 2.72888 12.9827 2.77836 13.0948C2.5936 13.478 2.5 13.8846 2.5 14.3043V15.9945C2.5 16.7423 2.79859 17.4224 3.28268 17.936H21.2168C21.7014 17.4224 22 16.7421 22 15.994V14.3043C22 13.8778 21.9018 13.4641 21.7102 13.0736ZM20.9975 12.9912H6.96672C6.87507 12.9527 6.62644 12.8686 5.932 12.6709C6.04218 12.3273 6.38221 12.074 6.78829 12.074C7.10639 12.074 7.39426 12.2281 7.5583 12.4859L7.64776 12.6261L7.73721 12.4859C7.9015 12.2278 8.18937 12.074 8.50722 12.074C8.80898 12.074 9.08881 12.2139 9.25578 12.4482L9.34206 12.5693L9.42835 12.4482C9.59532 12.2139 9.87514 12.074 10.1769 12.074C10.4948 12.074 10.7826 12.2281 10.9469 12.4859L11.0364 12.6261L11.1258 12.4859C11.3467 12.1386 12.6505 11.9792 13.0722 12.134L13.1087 12.1474L13.1453 12.134C13.5667 11.9797 14.8706 12.1391 15.0914 12.4859L15.1809 12.6263L15.2703 12.4859C15.4344 12.2278 16.1461 12.074 16.4637 12.074C16.7655 12.074 17.0455 12.2139 17.2125 12.4484L17.2988 12.5695L17.3853 12.4484C17.5523 12.2139 18.2558 12.074 18.5578 12.074C18.8759 12.074 19.1635 12.2281 19.3278 12.4859L19.4167 12.6261L19.5064 12.4859C19.6707 12.2278 19.9584 12.074 20.2764 12.074C20.5724 12.074 20.8332 12.2095 20.9967 12.4148V12.9912H20.9975Z" fill="#0D0E0F"/>
</svg>
