<svg width="25" height="24" viewBox="0 0 25 24" fill="none" xmlns="http://www.w3.org/2000/svg">
<path d="M20.5209 17.2852C19.5579 19.5943 17.3002 19.9991 16.5624 19.9991C16.3457 19.9991 12.9716 20.178 8.1213 15.576C4.21795 11.8725 3.74102 7.88988 3.69943 7.13319C3.65906 6.39615 3.87 4.54722 6.41284 3.17346C6.72791 3.00324 7.35254 2.92783 7.51387 3.08916C7.58544 3.1608 9.71971 6.67368 9.7758 6.79007C9.83189 6.90625 9.86005 7.02077 9.86005 7.133C9.86005 7.2934 9.74578 7.49405 9.51702 7.73475C9.28848 7.97546 9.03987 8.19612 8.7711 8.3966C8.5023 8.59725 8.25374 8.8098 8.025 9.03444C7.79643 9.2589 7.68217 9.44367 7.68217 9.58802C7.69764 9.9627 8.00459 11.3047 10.3428 13.3598C12.6815 15.4154 13.808 15.9945 13.9162 16.0346C14.0246 16.0746 14.1148 16.0944 14.1869 16.0944C14.3314 16.0944 14.516 15.9803 14.7405 15.7517C14.965 15.5229 15.7199 14.4879 15.9606 14.2591C16.2012 14.0307 16.4018 13.9164 16.5624 13.9164C16.6746 13.9164 16.7888 13.9444 16.905 14.0005C17.0214 14.0566 20.538 16.1149 20.6052 16.1836C20.7876 16.3707 20.6588 16.9545 20.5209 17.2852Z" fill="#0D0E0F"/>
</svg>
