<svg width="24" height="24" viewBox="0 0 24 24" fill="none" xmlns="http://www.w3.org/2000/svg">
<path d="M17.2966 14.0371L19.6904 11.643C21.4366 9.89712 21.4366 7.05571 19.6904 5.30983C17.9443 3.56339 15.1031 3.56339 13.357 5.30983L9.90246 8.76437C8.15621 10.5102 8.15621 13.3517 9.90246 15.0975C10.1603 15.3556 10.4425 15.5743 10.7411 15.756L12.5905 13.9064C12.2382 13.8222 11.9041 13.6444 11.6298 13.3704C10.8361 12.5767 10.8361 11.2851 11.6298 10.4915L15.0844 7.03701C15.8781 6.24331 17.1697 6.24331 17.9632 7.03701C18.7569 7.83071 18.7569 9.12212 17.9632 9.91582L16.9483 10.9309C17.3665 11.9152 17.4821 12.9977 17.2966 14.0371Z" fill="#0D0E0F"/>
<path d="M7.70359 10.963L5.30983 13.3569C3.56339 15.103 3.56339 17.9442 5.30983 19.6903C7.05571 21.4366 9.89712 21.4366 11.6432 19.6903L15.0975 16.2358C16.8438 14.4897 16.8436 11.6485 15.0975 9.9026C14.8399 9.64458 14.5577 9.42585 14.2591 9.24414L12.4097 11.0937C12.7618 11.1781 13.0959 11.3555 13.3704 11.6298C14.1641 12.4235 14.1641 13.7149 13.3704 14.5086L9.91563 17.9631C9.12193 18.7568 7.83052 18.7568 7.03682 17.9631C6.24312 17.1694 6.24312 15.878 7.03682 15.0843L8.05189 14.0694C7.63351 13.0851 7.51791 12.0024 7.70359 10.963Z" fill="#0D0E0F"/>
</svg>
