<svg width="24" height="24" viewBox="0 0 24 24" fill="none" xmlns="http://www.w3.org/2000/svg">
<path d="M12.4179 3H4.2204C3.54639 3 3 3.60233 3 4.34535V7.92031C3 8.66332 3.54639 9.26565 4.2204 9.26565H12.4179C13.0919 9.26565 13.6383 8.66332 13.6383 7.92031V4.34535C13.6383 3.60233 13.0919 3 12.4179 3Z" fill="white"/>
<path d="M12.4179 10.6982H4.2204C3.54639 10.6982 3 11.3006 3 12.0436V19.6542C3 20.3972 3.54639 20.9996 4.2204 20.9996H12.4179C13.0919 20.9996 13.6383 20.3972 13.6383 19.6542V12.0436C13.6383 11.3006 13.0919 10.6982 12.4179 10.6982Z" fill="white"/>
<path d="M19.7795 3H16.4665C15.7925 3 15.2461 3.60233 15.2461 4.34535V19.6547C15.2461 20.3977 15.7925 21 16.4665 21H19.7795C20.4535 21 20.9999 20.3977 20.9999 19.6547V4.34535C20.9999 3.60233 20.4535 3 19.7795 3Z" fill="white"/>
</svg>
