<svg width="32" height="32" viewBox="0 0 32 32" fill="none" xmlns="http://www.w3.org/2000/svg">
<path d="M15.9994 29.3337C13.3623 29.3337 10.7844 28.5517 8.59175 27.0866C6.3991 25.6215 4.69013 23.5391 3.68096 21.1028C2.67179 18.6664 2.40775 15.9855 2.92222 13.3991C3.43669 10.8127 4.70656 8.43694 6.57127 6.57224C8.43597 4.70754 10.8117 3.43766 13.3982 2.92319C15.9846 2.40872 18.6655 2.67277 21.1018 3.68194C23.5382 4.69111 25.6205 6.40007 27.0856 8.59273C28.5507 10.7854 29.3327 13.3633 29.3327 16.0003C29.329 19.5354 27.9231 22.9247 25.4234 25.4244C22.9237 27.9241 19.5345 29.33 15.9994 29.3337ZM15.9994 4.33367C13.6919 4.33367 11.4363 5.0179 9.5177 6.29985C7.59913 7.5818 6.10378 9.40389 5.22076 11.5357C4.33774 13.6675 4.1067 16.0133 4.55686 18.2764C5.00702 20.5395 6.11816 22.6183 7.74978 24.2499C9.38139 25.8815 11.4602 26.9927 13.7233 27.4428C15.9864 27.893 18.3322 27.662 20.464 26.7789C22.5958 25.8959 24.4179 24.4006 25.6998 22.482C26.9818 20.5634 27.666 18.3078 27.666 16.0003C27.666 12.9061 26.4369 9.93868 24.2489 7.75075C22.061 5.56283 19.0936 4.33367 15.9994 4.33367Z" fill="white" stroke="white"/>
<path d="M17.4952 15.9749L21.0232 12.4469C21.2101 12.2463 21.3119 11.9809 21.307 11.7067C21.3022 11.4325 21.1911 11.1709 20.9972 10.977C20.8033 10.7831 20.5417 10.672 20.2675 10.6672C19.9933 10.6623 19.7279 10.7641 19.5273 10.9511L15.9993 14.479L12.4714 10.9511C12.2708 10.7641 12.0054 10.6623 11.7312 10.6672C11.457 10.672 11.1954 10.7831 11.0015 10.977C10.8076 11.1709 10.6965 11.4325 10.6917 11.7067C10.6868 11.9809 10.7886 12.2463 10.9755 12.4469L14.5035 15.9749L10.9755 19.5028C10.7773 19.7013 10.666 19.9703 10.666 20.2507C10.666 20.5312 10.7773 20.8002 10.9755 20.9987C11.174 21.1969 11.443 21.3082 11.7235 21.3082C12.0039 21.3082 12.2729 21.1969 12.4714 20.9987L15.9993 17.4707L19.5273 20.9987C19.7257 21.1969 19.9948 21.3082 20.2752 21.3082C20.5557 21.3082 20.8247 21.1969 21.0232 20.9987C21.2214 20.8002 21.3327 20.5312 21.3327 20.2507C21.3327 19.9703 21.2214 19.7013 21.0232 19.5028L17.4952 15.9749Z" fill="white"/>
</svg>
