<svg width="24" height="24" viewBox="0 0 24 24" fill="none" xmlns="http://www.w3.org/2000/svg">
<path d="M7.66406 20.9999L10.5168 18.0112L8.34799 16.9463L7.66406 20.9999Z" fill="#0D0E0F"/>
<path d="M1 11.8427L5.09574 14.2744L22.2709 4L1 11.8427Z" fill="#0D0E0F"/>
<path d="M16.7663 20.1329L22.2701 4.37598L8.79688 16.219L16.7663 20.1329Z" fill="#0D0E0F"/>
<path d="M6.93013 20.2412L7.60548 16.2431C7.60772 16.2282 7.61815 16.2174 7.62188 16.2032C7.63268 16.1634 7.6474 16.1254 7.66994 16.0896C7.6828 16.0691 7.69752 16.0527 7.71317 16.0348C7.72677 16.0199 7.73478 16.0013 7.7508 15.9879L22.2716 4.1709L5.58984 14.9695L6.93013 20.2412Z" fill="#0D0E0F"/>
</svg>
