<svg width="24" height="24" viewBox="0 0 24 24" fill="none" xmlns="http://www.w3.org/2000/svg">
<path d="M14.6015 21.0001H5.52318C4.13211 21.0001 3 19.8684 3 18.4769V9.39818C3 8.00711 4.13211 6.875 5.52318 6.875H9.63431C9.871 6.875 10.0623 7.06675 10.0623 7.30302C10.0623 7.53929 9.871 7.73104 9.63431 7.73104H5.52318C4.60422 7.73104 3.85604 8.47879 3.85604 9.39818V18.4769C3.85604 19.3959 4.60379 20.144 5.52318 20.144H14.6019C15.5209 20.144 16.269 19.3963 16.269 18.4769V14.3658C16.269 14.1295 16.4604 13.9378 16.6971 13.9378C16.9338 13.9378 17.1251 14.1295 17.1251 14.3658V18.4769C17.1251 19.868 15.993 21.0001 14.6019 21.0001H14.6015Z" fill="#0D0E0F"/>
<path d="M14.0848 5.88672L6.88293 13.0886C6.44934 13.5217 6.21094 14.0974 6.21094 14.7108V16.5059C6.21094 17.2138 6.78705 17.7899 7.495 17.7899H9.29011C9.90261 17.7899 10.4783 17.5515 10.9123 17.118L18.1142 9.9161L14.0848 5.88672Z" fill="#0D0E0F"/>
<path d="M19.5158 6.09355L17.9073 4.48505C17.261 3.83832 16.1327 3.83832 15.4864 4.48505L14.6895 5.28203L18.7188 9.3114L19.5158 8.51443C20.1831 7.84672 20.1831 6.76083 19.5158 6.09355Z" fill="#0D0E0F"/>
</svg>
