<svg width="24" height="24" viewBox="0 0 24 24" fill="none" xmlns="http://www.w3.org/2000/svg">
<path d="M8.50226 5.69008H22.5799C22.8369 5.69008 23.046 5.48097 23.046 5.22394C23.046 4.96692 22.8369 4.75781 22.5799 4.75781H8.50226C8.24524 4.75781 8.03613 4.96692 8.03613 5.22394C8.03613 5.48097 8.24519 5.69008 8.50226 5.69008Z" fill="#0D0E0F"/>
<path d="M1.46613 5.69008H4.98668C5.24371 5.69008 5.45281 5.48097 5.45281 5.22394C5.45281 4.96692 5.24371 4.75781 4.98668 4.75781H1.46613C1.20911 4.75781 1 4.96692 1 5.22394C1 5.48097 1.20906 5.69008 1.46613 5.69008Z" fill="#0D0E0F"/>
<path d="M22.58 11.7891H17.3011C17.0441 11.7891 16.835 11.9982 16.835 12.2552C16.835 12.5122 17.0441 12.7213 17.3011 12.7213H22.58C22.8371 12.7213 23.0462 12.5122 23.0462 12.2552C23.0462 11.9982 22.8371 11.7891 22.58 11.7891Z" fill="#0D0E0F"/>
<path d="M1.46613 12.7213H13.7861C14.0431 12.7213 14.2522 12.5122 14.2522 12.2552C14.2522 11.9982 14.0431 11.7891 13.7861 11.7891H1.46613C1.20911 11.7891 1 11.9982 1 12.2552C1 12.5122 1.20906 12.7213 1.46613 12.7213Z" fill="#0D0E0F"/>
<path d="M22.5802 18.8311H11.5638C11.3068 18.8311 11.0977 19.0402 11.0977 19.2972C11.0977 19.5542 11.3068 19.7633 11.5638 19.7633H22.5802C22.8372 19.7633 23.0463 19.5542 23.0463 19.2972C23.0463 19.0402 22.8372 18.8311 22.5802 18.8311Z" fill="#0D0E0F"/>
<path d="M8.04856 18.8311H1.46613C1.20911 18.8311 1 19.0402 1 19.2972C1 19.5542 1.20911 19.7633 1.46613 19.7633H8.04861C8.30563 19.7633 8.51474 19.5542 8.51474 19.2972C8.51469 19.0402 8.30563 18.8311 8.04856 18.8311Z" fill="#0D0E0F"/>
<path d="M8.9694 5.22396C8.9694 3.99766 7.97174 3 6.74544 3C5.51915 3 4.52148 3.99766 4.52148 5.22396C4.52148 6.45026 5.51915 7.44792 6.74544 7.44792C7.97174 7.44792 8.9694 6.45026 8.9694 5.22396ZM6.74544 6.51566C6.0332 6.51566 5.45375 5.93621 5.45375 5.22396C5.45375 4.51171 6.0332 3.93226 6.74544 3.93226C7.45769 3.93226 8.03714 4.51171 8.03714 5.22396C8.03714 5.93621 7.45769 6.51566 6.74544 6.51566Z" fill="#0D0E0F"/>
<path d="M15.5442 10.0361C14.3179 10.0361 13.3203 11.0338 13.3203 12.2601C13.3203 13.4864 14.3179 14.4841 15.5442 14.4841C16.7705 14.4841 17.7682 13.4864 17.7682 12.2601C17.7682 11.0338 16.7705 10.0361 15.5442 10.0361ZM15.5442 13.5518C14.832 13.5518 14.2526 12.9723 14.2526 12.2601C14.2526 11.5479 14.832 10.9684 15.5442 10.9684C16.2565 10.9684 16.8359 11.5479 16.8359 12.2601C16.8359 12.9724 16.2565 13.5518 15.5442 13.5518Z" fill="#0D0E0F"/>
<path d="M9.80594 17.0723C8.57969 17.0723 7.58203 18.0699 7.58203 19.2962C7.58203 20.5225 8.57969 21.5202 9.80594 21.5202C11.0323 21.5202 12.03 20.5225 12.03 19.2962C12.03 18.07 11.0323 17.0723 9.80594 17.0723ZM11.0977 19.2962C11.0977 20.0085 10.5182 20.5879 9.80594 20.5879C9.09374 20.5879 8.51429 20.0085 8.51429 19.2962C8.51429 18.584 9.09374 18.0045 9.80594 18.0045C10.5182 18.0045 11.0977 18.584 11.0977 19.2962Z" fill="#0D0E0F"/>
</svg>
