<svg width="20" height="12" viewBox="0 0 20 12" fill="none" xmlns="http://www.w3.org/2000/svg">
<path d="M3.55003 2.9105L4.62812 7.61484H10.0977H15.5677L16.6451 2.91137C16.6917 2.38605 17.0332 1.94593 17.5027 1.7568C16.8131 0.699844 15.6217 0 14.2656 0C14.2656 0 11.1291 0.256885 10.0835 0.256885C9.04529 0.256885 5.9302 0 5.9302 0C4.57387 0 3.38291 0.700063 2.69287 1.75702C3.16198 1.94614 3.50318 2.38562 3.55003 2.9105Z" fill="white"/>
<path d="M19.8334 3.85846C19.8334 3.15949 19.1865 2.59277 18.3888 2.59277C17.6345 2.59277 17.0159 3.09914 16.9503 3.74538L15.8204 8.0669H4.3468L3.2162 3.74451C3.1504 3.09914 2.53183 2.59277 1.77795 2.59277C0.980273 2.59277 0.333374 3.15949 0.333374 3.85846C0.333374 3.92906 0.341654 3.99791 0.354291 4.06524L2.27233 11.4827L2.33551 11.4696V11.4827H17.9317V11.34L19.8334 4.06959C19.8334 4.06959 19.8334 3.92906 19.8334 3.85846Z" fill="white"/>
</svg>
