<svg width="18" height="18" viewBox="0 0 18 18" fill="none" xmlns="http://www.w3.org/2000/svg">
<path fill-rule="evenodd" clip-rule="evenodd" d="M15 18.0003H11.8C11.634 18.0003 11.5 17.8662 11.5 17.7002V13.5003C11.5 12.1193 10.381 11.0003 9 11.0003C7.619 11.0003 6.5 12.1193 6.5 13.5003V17.7002C6.5 17.8662 6.36595 18.0003 6.19995 18.0003H3C1 18.0003 0 17.0003 0 15.0003V8.65127C0 6.65327 0.523054 6.34632 1.43005 5.58633L7.39404 0.585227C8.32304 -0.193773 9.67806 -0.193773 10.6071 0.585227L16.571 5.58633C17.477 6.34632 18.001 6.65327 18.001 8.65127V15.0003C18 17.0003 17 18.0003 15 18.0003Z" fill="#0D0E0F"/>
</svg>
