<svg width="18" height="18" viewBox="0 0 18 18" fill="none" xmlns="http://www.w3.org/2000/svg">
<path fill-rule="evenodd" clip-rule="evenodd" d="M10.6069 0.58425L16.5709 5.58535C16.6253 5.63095 16.6784 5.67492 16.73 5.71772C17.5388 6.38816 18.0009 6.77124 18 8.65029V14.9993C18 16.9993 17 17.9993 15 17.9993H3C1 17.9993 0 16.9993 0 14.9993V8.65029C0 6.77243 0.462816 6.38838 1.27067 5.718C1.32235 5.67511 1.37545 5.63105 1.42993 5.58535L7.39392 0.58425C8.32292 -0.19475 9.67793 -0.19475 10.6069 0.58425ZM9.8347 10.7608H8.34459C8.38634 11.5908 8.05747 12.353 7.73998 12.8851L11.0111 12.8858L11.0108 14L6.57687 13.999L6.19575 13.0891L6.2315 13.0519C6.24275 13.0404 7.31961 11.9085 7.22636 10.7607H6V9.64643H6.90986C6.72437 8.90282 6.40774 6.90197 8.1071 6.18548C8.53847 6.00348 9.02758 5.95423 9.52208 6.04298C10.4547 6.21023 11.3958 6.9371 11.3958 8.1842V8.26283H10.2814V8.1842C10.2814 7.33584 9.42333 7.15734 9.32545 7.13984C9.04346 7.08922 8.77234 7.11447 8.54022 7.21234C7.5391 7.63446 7.90422 9.11769 8.07172 9.64656H9.8347V10.7608Z" fill="#0D0E0F"/>
</svg>
