<svg width="32" height="32" viewBox="0 0 32 32" fill="none" xmlns="http://www.w3.org/2000/svg">
<path d="M15.9993 2.66699C8.63575 2.66699 2.66602 8.63673 2.66602 16.0003C2.66602 23.3642 8.63575 29.3337 15.9993 29.3337C23.3632 29.3337 29.3327 23.3642 29.3327 16.0003C29.3327 8.63673 23.3632 2.66699 15.9993 2.66699ZM15.9993 5.96287C18.088 5.96287 20.0269 6.60137 21.6335 7.69291L7.69193 21.6348C6.6004 20.0282 5.9619 18.089 5.9619 16.0003C5.9619 10.457 10.456 5.96287 15.9993 5.96287ZM15.9993 26.0378C13.9283 26.0378 12.0041 25.4101 10.4056 24.335L24.334 10.4066C25.4091 12.0051 26.0368 13.9293 26.0368 16.0003C26.0368 21.5437 21.5427 26.0378 15.9993 26.0378Z" fill="white"/>
</svg>
