<svg width="24" height="24" viewBox="0 0 24 24" fill="none" xmlns="http://www.w3.org/2000/svg">
<path d="M20.3379 18.2442H18.7811V10.6747C18.7811 10.4242 18.5842 10.2274 18.3337 10.2274H16.8842C16.6337 10.2274 16.4368 10.4242 16.4368 10.6747V18.2442H14.9337V12.8937C14.9337 12.6432 14.7368 12.4463 14.4863 12.4463H13.0368C12.7863 12.4463 12.5895 12.6432 12.5895 12.8937V18.2442H11.0863V14.7905C11.0863 14.54 10.8895 14.3432 10.6389 14.3432H9.18947C8.93895 14.3432 8.74211 14.54 8.74211 14.7905V18.2442H5.32421V16.4547H6.55895C6.91684 16.4547 7.22105 16.1505 7.22105 15.7926C7.22105 15.4347 6.91684 15.1305 6.55895 15.1305H5.32421V13.3411H6.55895C6.91684 13.3411 7.22105 13.0368 7.22105 12.6789C7.22105 12.3211 6.91684 12.0168 6.55895 12.0168H5.32421V10.2274H6.55895C6.91684 10.2274 7.22105 9.92316 7.22105 9.56526C7.22105 9.20737 6.91684 8.90316 6.55895 8.90316H5.32421V7.13158H6.55895C6.91684 7.13158 7.22105 6.82737 7.22105 6.46947C7.22105 6.11158 6.91684 5.80737 6.55895 5.80737H5.32421V4.66211C5.32421 4.30421 5.02 4 4.66211 4C4.30421 4 4 4.30421 4 4.66211V18.9242C4 19.2821 4.30421 19.5863 4.66211 19.5863H20.3379C20.6958 19.5863 21 19.2821 21 18.9242C21 18.5484 20.6958 18.2442 20.3379 18.2442Z" fill="#0D0E0F"/>
</svg>
