<svg width="24" height="24" viewBox="0 0 24 24" fill="none" xmlns="http://www.w3.org/2000/svg">
<path d="M19.6155 3H4.38459C3.61991 3 3 3.61991 3 4.38459V19.6154C3 20.3801 3.61991 21 4.38459 21H19.6154C20.3801 21 21 20.3801 21 19.6154V4.38459C21 3.61991 20.3802 3 19.6155 3ZM8.53849 15.9808H7.67307V18.2308C7.67307 18.5175 7.44049 18.7501 7.15384 18.7501C6.86719 18.7501 6.6346 18.5175 6.6346 18.2308V15.9808H5.76918C5.48253 15.9808 5.24994 15.7482 5.24994 15.4616C5.24994 15.1749 5.48253 14.9423 5.76918 14.9423H6.6346V5.76925C6.6346 5.48259 6.86719 5.25001 7.15384 5.25001C7.44049 5.25001 7.67307 5.48259 7.67307 5.76925V14.9423H8.53849C8.82514 14.9423 9.05773 15.1749 9.05773 15.4616C9.05773 15.7482 8.82514 15.9808 8.53849 15.9808ZM13.3847 9.05773H12.5193V18.2308C12.5193 18.5175 12.2867 18.7501 12 18.7501C11.7134 18.7501 11.4808 18.5175 11.4808 18.2308V9.05773H10.6154C10.3287 9.05773 10.0961 8.82514 10.0961 8.53849C10.0961 8.25184 10.3287 8.01925 10.6154 8.01925H11.4808V5.76925C11.4808 5.48259 11.7134 5.25001 12 5.25001C12.2867 5.25001 12.5193 5.48259 12.5193 5.76925V8.01925H13.3847C13.6713 8.01925 13.9039 8.25184 13.9039 8.53849C13.9039 8.82514 13.6713 9.05773 13.3847 9.05773ZM18.2309 15.9808H17.3655V18.2308C17.3655 18.5175 17.1329 18.7501 16.8462 18.7501C16.5596 18.7501 16.327 18.5175 16.327 18.2308V15.9808H15.4616C15.1749 15.9808 14.9423 15.7482 14.9423 15.4616C14.9423 15.1749 15.1749 14.9423 15.4616 14.9423H16.327V5.76925C16.327 5.48259 16.5596 5.25001 16.8462 5.25001C17.1329 5.25001 17.3655 5.48259 17.3655 5.76925V14.9423H18.2309C18.5175 14.9423 18.7501 15.1749 18.7501 15.4616C18.7501 15.7482 18.5175 15.9808 18.2309 15.9808Z" fill="#0D0E0F"/>
</svg>
