<svg width="32" height="32" viewBox="0 0 32 32" fill="none" xmlns="http://www.w3.org/2000/svg">
<path d="M6.67054 28H6.71804C7.07995 28.0011 7.43848 27.9302 7.7728 27.7916C8.10712 27.653 8.41057 27.4494 8.66554 27.1925L12.218 23.6325C12.3037 23.547 12.3716 23.4455 12.418 23.3338C12.4643 23.222 12.4882 23.1022 12.4882 22.9812C12.4882 22.8603 12.4643 22.7405 12.418 22.6287C12.3716 22.517 12.3037 22.4154 12.218 22.33L11.7955 21.91L12.888 20.815C14.5197 22.0728 16.5228 22.7534 18.583 22.75C21.0694 22.75 23.454 21.7623 25.2122 20.0041C26.9703 18.246 27.958 15.8614 27.958 13.375C27.958 10.8886 26.9703 8.50403 25.2122 6.74587C23.454 4.98772 21.0694 4 18.583 4C16.8354 4.00061 15.1227 4.48984 13.6384 5.41246C12.1541 6.33507 10.9574 7.65431 10.1833 9.2212C9.4092 10.7881 9.08864 12.5402 9.25779 14.2796C9.42694 16.0191 10.0791 17.6766 11.1405 19.065L10.0455 20.16L9.62804 19.75C9.54237 19.6643 9.44065 19.5963 9.32869 19.5499C9.21673 19.5035 9.09673 19.4796 8.97554 19.4796C8.85435 19.4796 8.73434 19.5035 8.62238 19.5499C8.51043 19.5963 8.40871 19.6643 8.32304 19.75L4.83554 23.25C4.32176 23.7596 4.02315 24.447 4.00129 25.1703C3.97943 25.8936 4.23598 26.5978 4.71804 27.1375C4.96887 27.405 5.27104 27.6193 5.6065 27.7675C5.94196 27.9157 6.30384 27.9947 6.67054 28ZM14.063 8.8475C14.9576 7.95365 16.0971 7.34509 17.3375 7.09875C18.5778 6.85241 19.8634 6.97935 21.0316 7.46353C22.1999 7.9477 23.1983 8.76736 23.9008 9.81891C24.6032 10.8704 24.9782 12.1067 24.9782 13.3712C24.9782 14.6358 24.6032 15.872 23.9008 16.9236C23.1983 17.9751 22.1999 18.7948 21.0316 19.279C19.8634 19.7631 18.5778 19.8901 17.3375 19.6437C16.0971 19.3974 14.9576 18.7888 14.063 17.895C12.8645 16.6946 12.1913 15.0676 12.1913 13.3712C12.1913 11.6749 12.8645 10.0479 14.063 8.8475ZM11.468 19.4575L11.573 19.5775L11.678 19.695C11.7605 19.7825 11.843 19.87 11.928 19.945C11.9394 19.9647 11.9528 19.9831 11.968 20L12.0055 20.0375C12.0955 20.125 12.183 20.21 12.273 20.2875C12.3105 20.325 12.3505 20.3575 12.3905 20.3925C12.4305 20.4275 12.468 20.465 12.508 20.4975L11.443 21.555L10.4005 20.5125L11.468 19.4575ZM17.543 13.3725C17.5425 13.1668 17.6031 12.9656 17.7169 12.7943C17.8308 12.623 17.9929 12.4893 18.1827 12.4101C18.3726 12.331 18.5816 12.3099 18.7835 12.3495C18.9853 12.3891 19.1709 12.4877 19.3166 12.6328C19.4624 12.7779 19.5619 12.963 19.6026 13.1647C19.6432 13.3663 19.6231 13.5755 19.5448 13.7657C19.4666 13.9559 19.3337 14.1186 19.1629 14.2333C18.9921 14.348 18.7912 14.4095 18.5855 14.41C18.3099 14.41 18.0455 14.3009 17.8501 14.1064C17.6548 13.912 17.5444 13.6481 17.543 13.3725ZM18.5855 16.5C21.3355 16.5 23.5005 13.6325 23.5855 13.5C23.618 13.4567 23.6355 13.4041 23.6355 13.35C23.6355 13.2959 23.618 13.2433 23.5855 13.2C23.493 13.0775 21.3355 10.2175 18.5855 10.2175C15.8355 10.2175 13.668 13.0775 13.5855 13.2C13.5531 13.2433 13.5355 13.2959 13.5355 13.35C13.5355 13.4041 13.5531 13.4567 13.5855 13.5C13.668 13.64 15.8355 16.5 18.5855 16.5ZM18.5855 11.825C18.89 11.8255 19.1875 11.9162 19.4404 12.0857C19.6934 12.2553 19.8903 12.496 20.0065 12.7774C20.1227 13.0588 20.1528 13.3684 20.0931 13.667C20.0334 13.9655 19.8866 14.2397 19.6711 14.4548C19.4556 14.6699 19.1812 14.8164 18.8826 14.8756C18.5839 14.9348 18.2744 14.9042 17.9931 14.7875C17.7119 14.6709 17.4715 14.4735 17.3024 14.2203C17.1333 13.9671 17.043 13.6695 17.043 13.365C17.0457 12.9576 17.2094 12.5679 17.4983 12.2807C17.7873 11.9936 18.1782 11.8325 18.5855 11.8325V11.825Z" fill="white"/>
</svg>
