<svg width="20" height="12" viewBox="0 0 20 12" fill="none" xmlns="http://www.w3.org/2000/svg">
<path d="M19.3768 7.07363V0H17.0534V1.74549C16.8226 1.77816 16.3977 1.87249 16.3977 2.12184C16.3977 2.39948 16.9391 2.52623 17.4422 2.52623C17.945 2.52623 18.4866 2.39996 18.4866 2.12184C18.4866 1.85421 18.0157 1.76475 17.7661 1.73623V0.807787H18.6643V6.11886C18.4701 5.96091 18.2202 5.86194 17.944 5.86194C17.6052 5.86194 17.294 6.00478 17.0846 6.25097C16.8752 6.00502 16.5637 5.86194 16.2254 5.86194C15.9029 5.86194 15.1758 5.99357 14.9664 6.21953C14.757 5.99357 14.4538 5.86194 14.1313 5.86194C13.793 5.86194 13.0578 6.00478 12.8482 6.25097C12.5633 5.91606 11.2285 5.772 10.7758 5.92191C10.3232 5.77176 8.98843 5.9163 8.70348 6.25097C8.4941 6.00527 8.18283 5.86194 7.84426 5.86194C7.52178 5.86194 7.2188 5.99332 7.00942 6.21928C6.80004 5.99332 6.49681 5.86194 6.17433 5.86194C5.83576 5.86194 5.52425 6.00502 5.31487 6.25097C5.10549 6.00527 4.79422 5.86194 4.45541 5.86194C3.95255 5.86194 3.53135 6.18077 3.39607 6.61318C2.89443 6.47205 2.19706 6.28119 1.22353 6.02136C0.839376 5.92264 0.442551 6.15298 0.343101 6.51666C0.290451 6.70946 0.395507 6.98271 0.444989 7.09483C0.260226 7.47801 0.166626 7.88458 0.166626 8.30432V9.99448C0.166626 10.7423 0.46522 11.4224 0.949307 11.936H18.8835C19.368 11.4224 19.6666 10.7421 19.6666 9.99399V8.30432C19.6666 7.87776 19.5684 7.46411 19.3768 7.07363ZM18.6641 6.99124H4.63335C4.5417 6.95273 4.29307 6.86863 3.59863 6.67095C3.7088 6.32726 4.04883 6.07401 4.45492 6.07401C4.77301 6.07401 5.06088 6.22806 5.22493 6.48594L5.31438 6.6261L5.40384 6.48594C5.56813 6.22781 5.856 6.07401 6.17385 6.07401C6.47561 6.07401 6.75543 6.21392 6.9224 6.44816L7.00869 6.56931L7.09498 6.44816C7.26194 6.21392 7.54177 6.07401 7.84353 6.07401C8.16138 6.07401 8.44925 6.22806 8.61354 6.48594L8.703 6.6261L8.79245 6.48594C9.01329 6.1386 10.3171 5.97919 10.7388 6.13397L10.7754 6.14738L10.8119 6.13397C11.2334 5.97967 12.5372 6.13909 12.758 6.48594L12.8475 6.62634L12.9369 6.48594C13.101 6.22781 13.8127 6.07401 14.1303 6.07401C14.4321 6.07401 14.7122 6.21392 14.8791 6.44841L14.9654 6.56955L15.052 6.44841C15.2189 6.21392 15.9224 6.07401 16.2244 6.07401C16.5425 6.07401 16.8301 6.22806 16.9944 6.48594L17.0834 6.6261L17.1731 6.48594C17.3374 6.22781 17.625 6.07401 17.9431 6.07401C18.239 6.07401 18.4998 6.20953 18.6634 6.41477V6.99124H18.6641Z" fill="white"/>
</svg>
