<svg width="24" height="24" viewBox="0 0 24 24" fill="none" xmlns="http://www.w3.org/2000/svg">
<path d="M5.84766 3H18.1523C18.9076 3 19.6319 3.30002 20.1659 3.83406C20.7 4.3681 21 5.09241 21 5.84766V18.1523C21 18.9076 20.7 19.6319 20.1659 20.1659C19.6319 20.7 18.9076 21 18.1523 21H5.84766C5.09241 21 4.3681 20.7 3.83406 20.1659C3.30002 19.6319 3 18.9076 3 18.1523V5.84766C3 5.09241 3.30002 4.3681 3.83406 3.83406C4.3681 3.30002 5.09241 3 5.84766 3ZM13.2582 15.6731C13.8278 15.6714 14.3984 15.6875 14.9668 15.6594C15.3722 15.6403 15.7551 15.4679 16.0381 15.177C16.3211 14.8861 16.4829 14.4986 16.4909 14.0929C16.5084 13.395 16.4944 12.7031 16.4944 12H16.4979C16.4979 11.332 16.4902 10.67 16.4996 10.0063C16.513 9.09855 15.8159 8.47172 15.1806 8.36098C15.0439 8.33786 14.9055 8.3261 14.7668 8.32582C14.217 8.32195 13.6671 8.32336 13.1173 8.32582C12.8786 8.32582 12.8343 8.37047 12.8237 8.61129C12.8054 9.03316 12.8311 9.05918 13.2456 9.05918C13.7508 9.05918 14.256 9.05918 14.7615 9.05918C15.381 9.05918 15.7652 9.43992 15.7663 10.0583C15.7686 11.3511 15.7686 12.6441 15.7663 13.9371C15.7663 14.5573 15.3831 14.9373 14.7647 14.9391C14.2148 14.9391 13.665 14.9391 13.1152 14.9391C12.8634 14.9391 12.8339 14.9689 12.8237 15.2182C12.8058 15.6471 12.8307 15.6745 13.2582 15.6731ZM7.64414 12.2921C8.65805 13.3091 9.67324 14.325 10.6897 15.3398C10.8114 15.4615 10.9527 15.5258 11.119 15.4587C11.2853 15.3915 11.3623 15.2477 11.3616 15.0667C11.3595 14.5963 11.3672 14.1259 11.3672 13.6555V13.4766H11.5518C12.3045 13.4766 13.0571 13.4723 13.8098 13.4716C14.1688 13.4716 14.2932 13.3451 14.2936 12.9886C14.2936 12.33 14.2936 11.6711 14.2936 11.0118C14.2936 10.6567 14.1681 10.5284 13.8088 10.528C13.0561 10.528 12.3034 10.5234 11.5507 10.5234H11.3626C11.3595 10.4531 11.3552 10.406 11.3552 10.3533C11.3552 9.87797 11.3577 9.40406 11.3552 8.9291C11.3531 8.64785 11.1745 8.47594 10.9313 8.5248C10.8452 8.54511 10.7664 8.58893 10.7038 8.65137C9.68168 9.66715 8.66215 10.6855 7.6452 11.7064C7.45184 11.8984 7.45219 12.0998 7.64414 12.2921Z" fill="#0D0E0F"/>
</svg>
